<?xml version="1.0" encoding="UTF-8"?>
<svg version="1.1" xmlns="http://www.w3.org/2000/svg" width="1024" height="1024">
<path d="M0 0 C1.2897171 -0.00701431 2.5794342 -0.01402863 3.90823364 -0.02125549 C8.04690042 -0.0406465 12.18551112 -0.04568946 16.32421875 -0.046875 C17.02949329 -0.04731686 17.73476784 -0.04775871 18.46141434 -0.04821396 C39.78919873 -0.05522117 60.84530412 0.25935634 82.01171875 3.203125 C83.30239258 3.37473145 84.59306641 3.54633789 85.92285156 3.72314453 C137.10072785 10.59630446 185.86444223 25.13813549 233.01171875 46.203125 C233.8423584 46.57147461 234.67299805 46.93982422 235.52880859 47.31933594 C265.84311421 60.83778852 294.25398447 78.65461739 321.01171875 98.203125 C321.65254395 98.66976562 322.29336914 99.13640625 322.95361328 99.6171875 C331.53368221 105.88619025 339.77657065 112.41344832 347.77734375 119.40625 C350.64257447 121.90613843 353.59296272 124.27974595 356.57421875 126.640625 C361.51038558 130.63760965 365.94178719 135.01670456 370.38256836 139.54443359 C373.20673255 142.41968522 376.04182447 145.17705289 379.13671875 147.765625 C384.02491465 151.92926577 388.19904263 156.760465 392.48486328 161.5234375 C394.61623995 163.86815632 396.78969371 166.17224937 398.96069336 168.48022461 C404.93181756 174.84101577 410.59837365 181.3557183 416.01171875 188.203125 C416.85772032 189.25679362 417.70409072 190.31016617 418.55078125 191.36328125 C481.5953712 270.21785038 520.05621747 366.40224341 530.32977676 509.60852051 C530.32413302 511.73543371 530.32131482 513.86233894 530.31869507 515.98925781 C530.28248228 536.21094962 529.89162436 556.15336265 527.01171875 576.203125 C526.8401123 577.47671875 526.66850586 578.7503125 526.49169922 580.0625 C519.39291399 632.59286808 504.63037537 683.22242449 482.01171875 731.203125 C481.25036621 732.81864258 481.25036621 732.81864258 480.47363281 734.46679688 C466.02544191 764.82167114 448.27688563 793.39432026 428.01171875 820.203125 C427.38620117 821.0369873 427.38620117 821.0369873 426.74804688 821.88769531 C418.4476565 832.93977516 409.59134471 843.47900756 400.27734375 853.69140625 C399.05576647 855.04567209 397.84007561 856.40593647 396.66186523 857.7980957 C391.23143745 864.17411618 385.31582954 870.05026836 379.38745117 875.95776367 C377.57810942 877.76174585 375.77417556 879.57101165 373.97070312 881.38085938 C368.15449635 887.20072146 362.31676905 892.90761964 356.01171875 898.203125 C355.00169687 899.07968481 353.99253573 899.95723775 352.984375 900.8359375 C344.93493642 907.72928222 336.6188995 914.21055659 328.15380859 920.58447266 C326.08381759 922.14864411 324.02508315 923.72652849 321.96875 925.30859375 C255.31181045 976.35012512 173.07135479 1008.51532758 90.19921875 1020.078125 C89.50314514 1020.1759024 88.80707153 1020.27367981 88.08990479 1020.37442017 C83.07238721 1021.06708643 78.0478754 1021.66325592 73.01171875 1022.203125 C72.15789612 1022.2952829 71.30407349 1022.3874408 70.42437744 1022.48239136 C53.64563945 1024.23082417 36.92984669 1024.56743858 20.07008743 1024.52118301 C17.97916843 1024.51553711 15.88825755 1024.51272024 13.79733276 1024.51010132 C-6.28448227 1024.47353783 -26.07512817 1024.03948607 -45.98828125 1021.203125 C-47.86894287 1020.95369141 -47.86894287 1020.95369141 -49.78759766 1020.69921875 C-134.67462133 1009.33464883 -213.82415514 976.94008838 -307.08984375 908.703125 C-309.8004195 906.36516209 -312.56524916 904.12248638 -315.36328125 901.890625 C-327.45577131 891.98892844 -338.43336223 880.85336017 -349.48828125 869.828125 C-350.05467316 869.26441193 -350.62106506 868.70069885 -351.20462036 868.11990356 C-357.3502078 861.99636368 -363.39614105 855.84438008 -368.98828125 849.203125 C-369.90050156 848.14666881 -370.81323753 847.09065759 -371.7265625 846.03515625 C-378.06072026 838.60525648 -384.12642734 831.01148788 -389.98828125 823.203125 C-390.51292969 822.50977051 -391.03757812 821.81641602 -391.578125 821.10205078 C-411.94618775 794.14259128 -428.83925266 765.37649881 -443.98828125 735.203125 C-444.63772705 733.91825195 -444.63772705 733.91825195 -445.30029297 732.60742188 C-472.52635245 678.40230221 -487.57433866 617.46783288 -492.98828125 557.203125 C-493.07416504 556.25901764 -493.16004883 555.31491028 -493.24853516 554.3421936 C-493.93274273 546.25025887 -494.16231288 538.21243243 -494.19140625 530.09375 C-494.19846588 528.78060318 -494.20552551 527.46745636 -494.21279907 526.11451721 C-494.23234583 521.89404754 -494.23749146 517.67363569 -494.23828125 513.453125 C-494.23857582 512.73384701 -494.23887039 512.01456902 -494.23917389 511.27349472 C-494.24059675 489.77818162 -494.04003931 468.52735244 -490.98828125 447.203125 C-490.88882202 446.4901123 -490.78936279 445.77709961 -490.68688965 445.04248047 C-481.2233298 377.25494659 -459.57025807 312.35429216 -424.98828125 253.203125 C-424.48683594 252.33558594 -423.98539062 251.46804687 -423.46875 250.57421875 C-405.08565443 218.80396124 -382.23268262 186.62865364 -355.7734375 160.984375 C-353.95436157 159.16927954 -352.28311621 157.28078583 -350.61328125 155.328125 C-344.66271335 148.42871939 -338.15277983 142.07702559 -331.2265625 136.1640625 C-328.9383147 134.15934977 -326.72350794 132.08555167 -324.50952148 129.99951172 C-317.8851184 123.77691508 -310.96480603 118.12227889 -303.76220703 112.58740234 C-302.01115743 111.22097635 -300.29132607 109.82365768 -298.578125 108.41015625 C-234.31023646 55.5053927 -152.60945352 20.76289846 0 0 Z " fill="#88C4CB" transform="translate(493.98828125,-0.203125)"/>
<path d="M0 0 C115.83 0 231.66 0 351 0 C353.86950716 10.90412722 356.68280114 21.61516995 358.9375 32.625 C360.80393183 41.53601864 362.77261002 50.40674374 364.9375 59.25 C367.22034212 68.59643505 369.33873778 77.972243 371.375 87.375 C373.8348625 98.72260445 376.34774509 110.05628187 378.9375 121.375 C379.10375885 122.10190033 379.2700177 122.82880066 379.4413147 123.57772827 C381.77036092 133.74829538 384.15292812 143.90559278 386.55813599 154.05838013 C386.80779617 155.11229446 386.80779617 155.11229446 387.0625 156.1875 C387.22902069 156.89035126 387.39554138 157.59320251 387.56710815 158.31735229 C389.97715027 168.50340311 392.28339287 178.70767341 394.5 188.9375 C396.91847156 200.09756991 399.39086289 211.24341587 401.9375 222.375 C402.10394012 223.10271606 402.27038025 223.83043213 402.44186401 224.5802002 C404.77072991 234.74994237 407.15312277 244.90641443 409.55813599 255.05838013 C409.72457611 255.76098969 409.89101624 256.46359924 410.0625 257.1875 C410.22902069 257.89035126 410.39554138 258.59320251 410.56710815 259.31735229 C413.13225723 270.15896321 415.56985011 281.02345632 417.92752075 291.91192627 C420.21581192 302.47841365 422.58085873 313.02519937 425 323.5625 C425.16672211 324.28873566 425.33344421 325.01497131 425.50521851 325.76321411 C425.8404113 327.22305972 426.17561128 328.68290367 426.51081848 330.14274597 C426.67611557 330.86263199 426.84141266 331.58251801 427.01171875 332.32421875 C427.17657272 333.04196976 427.3414267 333.75972076 427.51127625 334.4992218 C429.58410378 343.53228371 431.61946109 352.57379666 433.65429688 361.61547852 C433.91919922 362.79166748 434.18410156 363.96785645 434.45703125 365.1796875 C434.71049316 366.30729492 434.96395508 367.43490234 435.22509766 368.59667969 C435.76178269 370.95376517 436.30905253 373.30845616 436.86474609 375.66113281 C437.14012207 376.82741211 437.41549805 377.99369141 437.69921875 379.1953125 C438.07373169 380.76176514 438.07373169 380.76176514 438.45581055 382.35986328 C439 385 439 385 439 388 C435.37 388 431.74 388 428 388 C427.67 389.65 427.34 391.3 427 393 C425.92845919 395.62400937 424.8247953 398.21770292 423.6875 400.8125 C420.17972626 409.0555443 417.9206575 417.26973862 416 426 C415.78601563 426.85078125 415.57203125 427.7015625 415.3515625 428.578125 C407.72164893 459.31893618 413.99623735 495.9924747 428 524 C431.63 524.33 435.26 524.66 439 525 C439 532.59 439 540.18 439 548 C283.24 548 127.48 548 -33 548 C-33 531 -33 531 -32 527 C-32.95601105 527.0199855 -32.95601105 527.0199855 -33.93133545 527.04037476 C-40.61563765 527.17398942 -47.29955544 527.26397041 -53.98486328 527.32958984 C-56.47362702 527.35960606 -58.96228638 527.40043258 -61.45068359 527.45263672 C-65.04551061 527.52611815 -68.63892922 527.55961016 -72.234375 527.5859375 C-73.33174988 527.61690521 -74.42912476 527.64787292 -75.55975342 527.67977905 C-85.73015401 527.68412645 -93.88622677 524.1364169 -101.375 517.25 C-114.9853668 502.23360357 -119.3806122 481.04756 -119.26074219 461.34277344 C-119.25008868 459.267276 -119.2606563 457.19265762 -119.2734375 455.1171875 C-119.29743566 434.39062417 -115.57577891 412.57019165 -100.99609375 396.7890625 C-94.31451161 390.80048203 -87.8264288 387.92310951 -78.94628906 387.79467773 C-77.72532532 387.77473251 -76.50436157 387.75478729 -75.24639893 387.73423767 C-73.27591583 387.70916893 -73.27591583 387.70916893 -71.265625 387.68359375 C-69.90370064 387.66301081 -68.54178248 387.64201399 -67.17987061 387.62062073 C-63.60265128 387.56553835 -60.02537562 387.51606836 -56.44805908 387.46777344 C-52.79474906 387.41745711 -49.14152042 387.36182403 -45.48828125 387.30664062 C-38.32558983 387.19922838 -31.16283054 387.09774615 -24 387 C-23.96907761 386.43371887 -23.93815521 385.86743774 -23.90629578 385.28399658 C-22.54671712 360.43064497 -21.16863908 335.58064303 -19.4375 310.75 C-19.34317688 309.39506439 -19.34317688 309.39506439 -19.24694824 308.01275635 C-19.12164614 306.21308369 -18.99634101 304.41341124 -18.87103271 302.61373901 C-18.81046692 301.74347076 -18.74990112 300.87320251 -18.6875 299.9765625 C-18.62806213 299.1229715 -18.56862427 298.26938049 -18.50738525 297.3899231 C-17.36830968 280.95817316 -16.37411455 264.51641593 -15.5390625 248.06640625 C-15.50029495 247.30354309 -15.4615274 246.54067993 -15.42158508 245.75469971 C-15.38244492 244.98406189 -15.34330475 244.21342407 -15.30297852 243.41943359 C-15.22283743 241.84212146 -15.14267781 240.26481027 -15.0625 238.6875 C-15.00290604 237.51226776 -15.00290604 237.51226776 -14.94210815 236.31329346 C-14.22423045 222.2605547 -13.28946736 208.22761418 -12.30252075 194.1914978 C-11.40995181 181.46564314 -10.63196046 168.74139858 -10 156 C-9.27497888 141.38234016 -8.32912211 126.78786441 -7.30224609 112.18847656 C-6.40977861 99.46361763 -5.63242399 86.74036755 -5 74 C-4.29158993 59.76014029 -3.41214513 45.53663445 -2.4375 31.3125 C-2.34118286 29.89940552 -2.34118286 29.89940552 -2.24291992 28.45776367 C-2.0583261 25.75947117 -1.87152469 23.06134322 -1.68359375 20.36328125 C-1.62948837 19.57834793 -1.575383 18.79341461 -1.51963806 17.98469543 C-1.09536973 11.97851109 -0.54546489 6.00011384 0 0 Z " fill="#FECF5B" transform="translate(362,238)"/>
<path d="M0 0 C0.87075108 -0.00115384 1.74150216 -0.00230769 2.63863963 -0.0034965 C5.57663852 -0.00615795 8.51458337 -0.00164482 11.4525795 0.00279331 C13.57205444 0.00235751 15.69152932 0.00148245 17.81100392 0.00020415 C23.65098073 -0.00203913 29.4909393 0.00197822 35.33091378 0.00698221 C41.62265413 0.0112889 47.91439339 0.00984013 54.2061348 0.00907993 C65.11226809 0.00855484 76.01839456 0.01166534 86.92452621 0.01731777 C98.36467644 0.0232318 109.8048243 0.02708311 121.24497604 0.02817059 C121.95589698 0.02823933 122.66681792 0.02830806 123.39928192 0.02837889 C127.00958912 0.02871721 130.61989633 0.0290186 134.23020354 0.02930576 C159.8118378 0.031407 185.39346896 0.03814666 210.97510147 0.04760838 C235.82959349 0.05679054 260.68408466 0.06387527 285.53857803 0.06811619 C286.30450261 0.06824771 287.07042719 0.06837924 287.8595616 0.06851475 C295.55118728 0.06983326 303.24281296 0.07110907 310.93443865 0.07235361 C326.60361227 0.07488993 342.27278584 0.07771118 357.94195938 0.08070469 C358.66242604 0.08084198 359.3828927 0.08097927 360.12519168 0.08112072 C408.2488283 0.09032368 456.37246308 0.10618992 504.49609756 0.12304783 C503.67472437 4.70884285 502.0448808 8.68893543 500.18359756 12.93554783 C496.67582382 21.17859213 494.41675507 29.39278645 492.49609756 38.12304783 C492.175121 39.3992197 492.175121 39.3992197 491.84766006 40.70117283 C484.2177465 71.44198401 490.49233492 108.11552253 504.49609756 136.12304783 C508.12609756 136.45304783 511.75609756 136.78304783 515.49609756 137.12304783 C515.49609756 144.71304783 515.49609756 152.30304783 515.49609756 160.12304783 C359.73609756 160.12304783 203.97609756 160.12304783 43.49609756 160.12304783 C43.49609756 143.12304783 43.49609756 143.12304783 44.49609756 139.12304783 C43.54008652 139.14303333 43.54008652 139.14303333 42.56476212 139.16342258 C35.88045991 139.29703725 29.19654212 139.38701824 22.51123428 139.45263767 C20.02247054 139.48265389 17.53381118 139.52348041 15.04541397 139.57568455 C11.45058696 139.64916598 7.85716835 139.68265799 4.26172256 139.70898533 C3.16434769 139.73995304 2.06697281 139.77092075 0.93634415 139.80282688 C-9.23405644 139.80717428 -17.39012921 136.25946473 -24.87890244 129.37304783 C-38.48926923 114.3566514 -42.88451464 93.17060783 -42.76464462 73.46582127 C-42.75399111 71.39032383 -42.76455874 69.31570545 -42.77733994 67.24023533 C-42.80133809 46.513672 -39.07968134 24.69323947 -24.49999619 8.91211033 C-16.87190619 2.07519209 -10.01129963 -0.03236817 0 0 Z " fill="#FDFDFD" transform="translate(285.50390243530273,625.8769521713257)"/>
<path d="M0 0 C2.15233435 0.01507964 4.30467896 0.02876222 6.45703125 0.04101562 C11.67991503 0.07374818 16.90240826 0.12368515 22.125 0.1875 C22.19263349 7.0071104 22.05249282 13.7508613 21.5390625 20.55078125 C21.41274725 22.32226469 21.28644575 24.0937491 21.16015625 25.86523438 C21.05985107 27.24134888 21.05985107 27.24134888 20.95751953 28.64526367 C19.85448929 43.81906678 18.87424896 58.9921875 18.125 74.1875 C17.40112716 88.80520466 16.45412017 103.39966318 15.42724609 117.99902344 C14.53477955 130.72386906 13.75691023 143.44711412 13.125 156.1875 C12.39997888 170.80515984 11.45412211 185.39963559 10.42724609 199.99902344 C9.53477889 212.72387844 8.75728487 225.44712805 8.125 238.1875 C7.4399199 251.96981747 6.58326328 265.73398599 5.625 279.5 C5.23427258 285.12108663 5.23427258 285.12108663 4.84375 290.7421875 C4.74960815 292.09735725 4.74960815 292.09735725 4.65356445 293.47990417 C4.10844397 301.35953262 3.60167555 309.24089766 3.125 317.125 C3.04967041 318.36934814 2.97434082 319.61369629 2.89672852 320.89575195 C2.43237381 328.69873197 1.99610335 336.50303202 1.57089233 344.3082428 C1.30369933 349.20870607 1.03344976 354.10899977 0.76342773 359.00930786 C0.56452298 362.6504672 0.37104725 366.29188973 0.17773438 369.93334961 C0.05492636 372.17432951 -0.0681099 374.41529692 -0.19140625 376.65625 C-0.24551163 377.70559219 -0.299617 378.75493439 -0.35536194 379.83607483 C-0.40897385 380.79186935 -0.46258575 381.74766388 -0.51782227 382.73242188 C-0.56286392 383.57220581 -0.60790558 384.41198975 -0.65431213 385.27722168 C-0.875 387.1875 -0.875 387.1875 -1.875 388.1875 C-3.72424597 388.29000492 -5.57736876 388.3232158 -7.42944336 388.3293457 C-8.61835678 388.33638016 -9.8072702 388.34341461 -11.0322113 388.35066223 C-12.32998001 388.35482651 -13.62774872 388.35899078 -14.96484375 388.36328125 C-16.3071013 388.37370631 -17.64935144 388.38512899 -18.99159241 388.39750671 C-24.69886667 388.44993272 -30.40601622 388.49783078 -36.11352539 388.51342773 C-39.6033187 388.52358977 -43.0925098 388.55313135 -46.58206367 388.59474754 C-48.54372011 388.61285549 -50.50553207 388.61042405 -52.4672699 388.60749817 C-62.25975407 388.74016021 -70.88267868 390.4176501 -78.22265625 397.30859375 C-97.05650723 418.72486401 -97.19327979 448.30651292 -95.875 475.1875 C-95.23707012 481.1050872 -93.80775584 486.55345355 -91.875 492.1875 C-91.50117188 493.35796875 -91.12734375 494.5284375 -90.7421875 495.734375 C-86.56697988 507.7346406 -79.61917997 518.44123893 -68.00561523 524.24755859 C-62.19244692 526.78474677 -56.66760662 526.78995792 -50.40234375 526.796875 C-49.2386879 526.81341125 -48.07503204 526.82994751 -46.87611389 526.84698486 C-43.18818781 526.89526373 -39.50067353 526.9167921 -35.8125 526.9375 C-33.30010972 526.96567634 -30.78773844 526.99560607 -28.27539062 527.02734375 C-22.141961 527.10101796 -16.0087573 527.15071585 -9.875 527.1875 C-10.37 537.5825 -10.37 537.5825 -10.875 548.1875 C-18.21267326 548.30125966 -25.54985051 548.39264609 -32.8882246 548.44656086 C-36.29715892 548.47246049 -39.70544964 548.50748757 -43.11401367 548.56469727 C-47.04858213 548.63030884 -50.98290619 548.65384267 -54.91796875 548.67578125 C-56.72034248 548.71449089 -56.72034248 548.71449089 -58.55912781 548.75398254 C-72.98640497 548.75867866 -84.34520395 543.03627441 -94.83203125 533.38671875 C-104.03323719 523.68702761 -109.5494417 510.95952904 -112.875 498.1875 C-113.16914795 497.10855469 -113.16914795 497.10855469 -113.46923828 496.0078125 C-120.17058827 470.32021743 -120.53405437 435.53531698 -112.31713867 410.15161133 C-106.21201197 391.24782285 -104.43564268 372.17846627 -102.52101135 352.50401306 C-102.0615793 347.83527185 -101.57661842 343.16919354 -101.09277344 338.50292969 C-100.52191219 332.98738611 -99.95204864 327.47177237 -99.3927002 321.95504761 C-98.10510475 309.2650648 -96.69338794 296.59607492 -95.125 283.9375 C-93.27511303 268.8644258 -91.63951074 253.77432509 -90.05938721 238.67071533 C-88.64839029 225.20345158 -87.13746595 211.75402875 -85.5 198.3125 C-83.28475042 180.12244254 -81.31612372 161.90835088 -79.375 143.6875 C-77.23282938 123.58318184 -75.03556703 103.48944435 -72.58251953 83.42016602 C-71.58804113 75.27013518 -70.63964491 67.11915059 -69.78515625 58.953125 C-69.69690079 58.11932816 -69.60864532 57.28553131 -69.51771545 56.4264679 C-69.10187377 52.49720901 -68.69462097 48.56753373 -68.3059082 44.63549805 C-66.82463087 30.21685543 -63.57642401 20.29919264 -52.1875 10.8515625 C-36.24728208 -0.61893215 -18.74817172 -0.22990585 0 0 Z " fill="#324A5E" transform="translate(339.875,237.8125)"/>
<path d="M0 0 C174.9 0 349.8 0 530 0 C531.68886528 4.50364075 533.37469606 9.00063792 535.0078125 13.5234375 C535.35457031 14.48121094 535.70132813 15.43898438 536.05859375 16.42578125 C536.77792946 18.4151529 537.496666 20.40474128 538.21484375 22.39453125 C538.55902344 23.34457031 538.90320313 24.29460938 539.2578125 25.2734375 C539.5686377 26.13372559 539.87946289 26.99401367 540.19970703 27.88037109 C540.96276537 30.01090735 540.96276537 30.01090735 542 32 C545.63 32.33 549.26 32.66 553 33 C553 40.59 553 48.18 553 56 C397.24 56 241.48 56 81 56 C81 39 81 39 82 35 C81.3626593 35.01332367 80.7253186 35.02664734 80.06866455 35.04037476 C73.38436235 35.17398942 66.70044456 35.26397041 60.01513672 35.32958984 C57.52637298 35.35960606 55.03771362 35.40043258 52.54931641 35.45263672 C48.95448939 35.52611815 45.36107078 35.55961016 41.765625 35.5859375 C40.66825012 35.61690521 39.57087524 35.64787292 38.44024658 35.67977905 C28.26789266 35.68412729 20.11650415 32.13497584 12.625 25.25 C5.41414162 17.3495377 2.86679603 10.51158543 0 0 Z " fill="#FDFDFC" transform="translate(248,730)"/>
<path d="M0 0 C3.63 0 7.26 0 11 0 C11 7.59 11 15.18 11 23 C-144.76 23 -300.52 23 -461 23 C-461 6 -461 6 -460 2 C-308.2 1.67 -156.4 1.34 0 1 C0 0.67 0 0.34 0 0 Z " fill="#FECF5B" transform="translate(790,763)"/>
<path d="M0 0 C1.27151411 0.00394052 1.27151411 0.00394052 2.56871536 0.00796065 C3.46470726 0.0068068 4.36069916 0.00565296 5.28384233 0.00446415 C8.32576802 0.00178959 11.36764216 0.0063265 14.40956524 0.01075396 C16.59657262 0.01031843 18.78357994 0.00944386 20.97058699 0.00816479 C27.01116835 0.00591627 33.05173217 0.00994598 39.09231129 0.01494285 C45.59474028 0.01924207 52.09716819 0.01780131 58.5995982 0.01704058 C69.87574453 0.01634181 81.15188546 0.01963054 92.42803028 0.02527842 C104.25862113 0.03118885 116.08920967 0.03504303 127.91980198 0.03613123 C128.65449703 0.03619997 129.38919209 0.03626871 130.14615063 0.03633953 C133.87706547 0.03667785 137.60798032 0.03697924 141.33889516 0.03726641 C167.78737509 0.03936864 194.23585202 0.04611108 220.68433025 0.05556902 C246.38387436 0.06474857 272.08341765 0.07183457 297.78296307 0.07607684 C298.57468117 0.07620836 299.36639928 0.07633989 300.18210885 0.0764754 C308.13263118 0.07779388 316.08315352 0.0790697 324.03367587 0.08031426 C340.23082092 0.08285069 356.42796592 0.08567195 372.62511089 0.08866534 C373.74226865 0.08887127 373.74226865 0.08887127 374.88199526 0.08908137 C424.64415182 0.09828709 474.40630662 0.11415363 524.16846111 0.13100848 C524.29346111 6.75600848 524.29346111 6.75600848 523.16846111 10.13100848 C348.26846111 10.13100848 173.36846111 10.13100848 -6.83153889 10.13100848 C-6.83153889 0.0201487 -6.83153889 0.0201487 0 0 Z " fill="#FDFDFD" transform="translate(250.83153888583183,670.8689915239811)"/>
<path d="M0 0 C2 2 2 2 2 7 C-173.23 7 -348.46 7 -529 7 C-529.33 5.35 -529.66 3.7 -530 2 C-355.1 2 -180.2 2 0 2 C0 1.34 0 0.68 0 0 Z " fill="#ECF0F1" transform="translate(776,723)"/>
<path d="M0 0 C1 2 1 2 0.0625 5.125 C-0.288125 6.07375 -0.63875 7.0225 -1 8 C-1.33 7.34 -1.66 6.68 -2 6 C-176.57 6 -351.14 6 -531 6 C-530.67 4.35 -530.34 2.7 -530 1 C-355.1 0.67 -180.2 0.34 0 0 Z " fill="#ECF0F1" transform="translate(780,651)"/>
<path d="M0 0 C0.33 1.32 0.66 2.64 1 4 C175.9 4 350.8 4 531 4 C531.33 2.68 531.66 1.36 532 0 C532 2.64 532 5.28 532 8 C357.1 8 182.2 8 2 8 C1.67 8.66 1.34 9.32 1 10 C0.67 6.7 0.34 3.4 0 0 Z " fill="#ECF0F1" transform="translate(243,707)"/>
<path d="M0 0 C0.33 0 0.66 0 1 0 C1 2.31 1 4.62 1 7 C-262.34 7.495 -262.34 7.495 -531 8 C-531 6.35 -531 4.7 -531 3 C-355.77 3 -180.54 3 0 3 C0 2.01 0 1.02 0 0 Z " fill="#EDF1F2" transform="translate(774,678)"/>
<path d="M0 0 C0.33 1.32 0.66 2.64 1 4 C0.34 4.99 -0.32 5.98 -1 7 C-1 6.34 -1 5.68 -1 5 C-175.9 5 -350.8 5 -531 5 C-531 3.68 -531 2.36 -531 1 C-268.155 0.505 -268.155 0.505 0 0 Z " fill="#ECF0F1" transform="translate(776,666)"/>
<path d="M0 0 C2 3 2 3 2 6 C-172.57 6 -347.14 6 -527 6 C-527.66 4.68 -528.32 3.36 -529 2 C-354.43 2 -179.86 2 0 2 C0 1.34 0 0.68 0 0 Z " fill="#ECF0F1" transform="translate(780,738)"/>
<path d="M0 0 C0.33 1.32 0.66 2.64 1 4 C-174.23 4 -349.46 4 -530 4 C-530 3.01 -530 2.02 -530 1 C-355.1 0.67 -180.2 0.34 0 0 Z " fill="#ECF0F1" transform="translate(773,696)"/>
</svg>
